<?xml version="1.0" encoding="utf-8"?>
<!-- Generator: Adobe Illustrator 23.0.3, SVG Export Plug-In . SVG Version: 6.00 Build 0)  -->
<svg version="1.1" id="Layer_1" xmlns="http://www.w3.org/2000/svg" xmlns:xlink="http://www.w3.org/1999/xlink" x="0px" y="0px"
	 viewBox="0 0 720 284" style="enable-background:new 0 0 720 284;" xml:space="preserve">
<style type="text/css">
	.st0{fill:#D01818;}
	.st1{fill:#606060;}
</style>
<g>
	<g>
		<polygon class="st0" points="142.39,160.78 30.99,160.78 30.99,132.12 130.79,132.12 148.8,114.7 43.54,114.7 43.54,59.73 
			79.92,24.61 180.67,24.61 180.67,65.81 152.02,65.81 152.02,53.26 91.49,53.26 72.2,71.9 72.2,86.04 180.67,86.04 180.67,123.72 
					"/>
	</g>
	<g>
		<polygon class="st0" points="338.36,160.78 192.02,160.78 213.81,55.66 242,24.61 365.41,24.61 323.4,117.37 269.64,117.37 
			269.64,88.72 304.92,88.72 320.98,53.26 254.69,53.26 240.28,69.13 227.23,132.12 338.36,132.12 		"/>
	</g>
	<g>
		<polygon class="st0" points="470.91,160.78 370.49,160.78 370.49,120.46 399.14,120.46 399.14,132.12 459.39,132.12 
			479.03,113.29 490.43,53.26 423.53,53.26 423.53,24.61 525.04,24.61 505.47,127.64 		"/>
	</g>
	<g>
		<polygon class="st0" points="607.43,160.78 529.64,160.78 545.58,61.64 579.88,24.61 695.38,24.61 671.84,149.11 643.69,143.79 
			660.8,53.26 592.4,53.26 572.5,74.75 563.27,132.12 607.43,132.12 		"/>
	</g>
</g>
<g>
	<path class="st1" d="M509.29,215.28h-9.37c-3.27-6.96-9.8-11-18.23-11c-12.64,0-22.09,9.11-22.09,23.55
		c0,14.36,9.46,23.47,22.09,23.47c11.78,0,19.86-7.57,21.06-19.43h-23.9v-6.36h32.24v6.02c-1.38,14.87-13.15,26.82-29.4,26.82
		c-16.85,0-30.09-12.55-30.09-30.52c0-17.97,13.24-30.6,30.09-30.6C494.33,197.22,504.82,203.76,509.29,215.28z"/>
	<path class="st1" d="M540.75,197.91c14.1,0,20.8,7.82,20.8,17.62c0,7.65-4.21,14.96-14.27,17.19l15.04,25.1h-9.37l-14.27-24.5
		h-9.46v24.5h-7.82v-59.92H540.75z M540.75,204.36h-11.52v22.7h11.52c8.86,0,12.72-4.81,12.72-11.52
		C553.47,208.74,549.69,204.36,540.75,204.36z"/>
	<path class="st1" d="M573.5,197.91h7.82v37.91c0,11,5.93,15.73,14.79,15.73c8.85,0,14.7-4.73,14.7-15.73v-37.91h7.82v37.83
		c0,15.56-10.23,22.7-22.61,22.7c-12.38,0-22.52-7.13-22.52-22.7V197.91z"/>
	<path class="st1" d="M651.04,232.81h-11.52v25.02h-7.82v-59.92h19.34c14.1,0,20.72,7.74,20.72,17.54
		C671.76,224.56,665.91,232.81,651.04,232.81z M651.04,226.37c8.94,0,12.72-4.21,12.72-10.92c0-6.96-3.78-11.09-12.72-11.09h-11.52
		v22.01H651.04z"/>
</g>
</svg>
